<svg width="625" height="140" viewBox="0 0 625 140" fill="none" xmlns="http://www.w3.org/2000/svg">
<path d="M211.722 103.897L198.606 72.2868L209.741 70.4483L220.876 95.405L226.254 96.5379V103.897H211.722ZM186.434 66.0592H198.276C202.742 66.0592 206.046 65.1555 208.185 63.3456C210.324 61.5383 211.393 58.905 211.393 55.442C211.393 52.0795 210.354 49.3972 208.278 47.3988C206.202 45.403 203.042 44.405 198.796 44.405H186.434V66.0592ZM167.044 103.897V96.6316L174.545 95.2164V43.9306L167.044 42.5175V35.204H198.796C203.954 35.204 208.357 35.9983 212.006 37.5852C215.654 39.1754 218.438 41.4488 220.357 44.405C222.276 47.3612 223.234 50.9306 223.234 55.1134C223.234 59.1394 222.282 62.6478 220.38 65.6331C218.477 68.6238 215.818 70.9431 212.408 72.5926C208.993 74.2462 204.992 75.103 200.4 75.167L186.434 75.306V95.2164L193.936 96.6316V103.897H167.044Z" fill="#334AA6"/>
<path d="M242.793 73.3243H262.561V72.0978C262.561 69.865 262.223 67.906 261.547 66.2248C260.871 64.541 259.816 63.2284 258.387 62.2847C256.955 61.341 255.139 60.8691 252.936 60.8691C251.019 60.8691 249.335 61.4046 247.888 62.4732C246.441 63.5431 245.285 64.9983 244.421 66.8368C243.555 68.6784 242.965 70.7628 242.652 73.0899L242.793 73.3243ZM254.116 104.887C249.304 104.887 245.112 103.811 241.543 101.655C237.972 99.503 235.204 96.5232 233.239 92.7175C231.272 88.9112 230.291 84.5535 230.291 79.6472V77.6655C230.291 72.6951 231.257 68.2696 233.192 64.3836C235.125 60.5008 237.792 57.4494 241.189 55.2306C244.585 53.0145 248.455 51.905 252.796 51.905C257.419 51.905 261.295 52.8347 264.425 54.6879C267.553 56.5456 269.921 59.1795 271.525 62.5904C273.129 66.0046 273.932 70.1024 273.932 74.8806V81.6743H242.604L242.511 81.9112C242.636 84.5847 243.195 86.9587 244.184 89.0336C245.176 91.1107 246.592 92.7488 248.431 93.9415C250.272 95.1394 252.512 95.7374 255.155 95.7374C257.923 95.7374 260.439 95.3598 262.703 94.6046C264.968 93.8494 267.059 92.78 268.977 91.3956L272.705 98.8478C270.692 100.546 268.129 101.979 265.015 103.142C261.901 104.306 258.268 104.887 254.116 104.887Z" fill="#334AA6"/>
<path d="M277.933 103.897V96.6316L285.057 95.2164V61.5779L277.556 60.1603V52.8494H295.956L296.522 59.5483C298.189 57.1264 300.27 55.2483 302.773 53.9098C305.272 52.5743 308.174 51.905 311.477 51.905C314.81 51.905 317.665 52.6519 320.04 54.1472C322.413 55.6394 324.216 57.8956 325.442 60.915C327.014 58.1186 329.081 55.917 331.646 54.3103C334.209 52.7087 337.222 51.905 340.682 51.905C345.809 51.905 349.841 53.6524 352.784 57.1404C355.722 60.6347 357.194 65.9196 357.194 72.9936V95.2164L364.318 96.6316V103.897H338.606V96.6316L345.305 95.2164V72.9483C345.305 68.6383 344.582 65.6185 343.136 63.8888C341.688 62.1592 339.565 61.2926 336.765 61.2926C334.154 61.2926 332.008 62.1279 330.325 63.7946C328.641 65.4618 327.549 67.5863 327.046 70.1623V95.2164L333.512 96.6316V103.897H308.74V96.6316L315.205 95.2164V72.9483C315.205 68.7956 314.464 65.816 312.986 64.006C311.508 62.1988 309.369 61.2926 306.57 61.2926C304.242 61.2926 302.284 61.767 300.697 62.7112C299.108 63.6546 297.844 64.9894 296.9 66.7196V95.2164L303.55 96.6316V103.897H277.933Z" fill="#334AA6"/>
<path d="M390.682 95.7374C393.324 95.7374 395.502 95.018 397.216 93.5888C398.93 92.156 400.212 90.1743 401.061 87.6446C401.909 85.1107 402.337 82.194 402.337 78.892V77.8998C402.337 74.6316 401.909 71.7383 401.061 69.2186C400.212 66.705 398.922 64.7238 397.192 63.277C395.462 61.83 393.261 61.1035 390.586 61.1035C387.976 61.1035 385.806 61.83 384.076 63.277C382.346 64.7238 381.066 66.705 380.23 69.2186C379.398 71.7383 378.981 74.6316 378.981 77.8998V78.892C378.981 82.194 379.398 85.1107 380.23 87.6446C381.066 90.1743 382.354 92.156 384.1 93.5888C385.846 95.018 388.04 95.7374 390.682 95.7374ZM390.682 104.887C385.774 104.887 381.56 103.789 378.037 101.587C374.516 99.3852 371.809 96.3259 369.922 92.4092C368.034 88.4936 367.092 83.9874 367.092 78.892V77.8998C367.092 72.8388 368.034 68.355 369.922 64.455C371.809 60.555 374.516 57.4894 378.037 55.2535C381.56 53.0232 385.742 51.905 390.586 51.905C395.494 51.905 399.709 53.0145 403.232 55.2306C406.754 57.4494 409.46 60.5092 411.346 64.4098C413.234 68.3092 414.177 72.805 414.177 77.8998V78.892C414.177 83.9874 413.234 88.4936 411.346 92.4092C409.46 96.3259 406.762 99.3852 403.254 101.587C399.748 103.789 395.557 104.887 390.682 104.887Z" fill="#334AA6"/>
<path d="M437.336 104.796C432.994 104.796 429.612 103.574 427.189 101.138C424.768 98.6994 423.558 94.8071 423.558 89.4598V61.341H416.104V52.8494H423.558V40.4421H435.4V52.8494H445.496V61.341H435.4V89.4598C435.4 91.6306 435.849 93.2123 436.742 94.2003C437.641 95.1931 438.858 95.6879 440.401 95.6879C441.281 95.6879 442.265 95.6107 443.349 95.4503C444.434 95.2973 445.306 95.1394 445.968 94.9822L447.194 103.331C445.81 103.739 444.229 104.086 442.454 104.369C440.676 104.652 438.97 104.796 437.336 104.796Z" fill="#334AA6"/>
<path d="M461.812 73.3243H481.578V72.0978C481.578 69.865 481.241 67.906 480.564 66.2248C479.889 64.541 478.833 63.2284 477.404 62.2847C475.97 61.341 474.156 60.8691 471.954 60.8691C470.034 60.8691 468.353 61.4046 466.908 62.4732C465.461 63.5431 464.301 64.9983 463.438 66.8368C462.573 68.6784 461.982 70.7628 461.669 73.0899L461.812 73.3243ZM473.134 104.887C468.322 104.887 464.13 103.811 460.56 101.655C456.99 99.503 454.222 96.5232 452.256 92.7175C450.292 88.9112 449.306 84.5535 449.306 79.6472V77.6655C449.306 72.6951 450.274 68.2696 452.209 64.3836C454.142 60.5008 456.81 57.4494 460.208 55.2306C463.604 53.0145 467.473 51.905 471.813 51.905C476.437 51.905 480.312 52.8347 483.442 54.6879C486.572 56.5456 488.938 59.1795 490.542 62.5904C492.146 66.0046 492.95 70.1024 492.95 74.8806V81.6743H461.624L461.528 81.9112C461.654 84.5847 462.212 86.9587 463.201 89.0336C464.193 91.1107 465.609 92.7488 467.448 93.9415C469.289 95.1394 471.53 95.7374 474.173 95.7374C476.941 95.7374 479.457 95.3598 481.721 94.6046C483.986 93.8494 486.076 92.78 487.994 91.3956L491.724 98.8478C489.71 100.546 487.145 101.979 484.032 103.142C480.917 104.306 477.286 104.887 473.134 104.887Z" fill="#334AA6"/>
<path d="M514.981 103.897L492.478 43.2727L486.629 42.5175V35.204H511.584V42.5175L505.357 43.5071L519.654 85.3566L520.926 89.8373H521.209L522.53 85.4024L537.017 43.4618L529.89 42.5175V35.204H554.094V42.5175L548.15 43.2727L526.493 103.897H514.981Z" fill="#334AA6"/>
<path d="M567.22 95.6879C569.61 95.6879 571.844 95.1306 573.918 94.0128C575.996 92.8972 577.554 91.4874 578.592 89.7888V81.2514H570.665C567.112 81.2514 564.429 82.077 562.62 83.727C560.812 85.3806 559.908 87.3071 559.908 89.5092C559.908 91.4874 560.537 93.0144 561.796 94.0836C563.054 95.154 564.86 95.6879 567.22 95.6879ZM564.532 104.887C559.342 104.887 555.298 103.551 552.406 100.878C549.512 98.2046 548.065 94.5248 548.065 89.8374C548.065 86.629 548.945 83.8164 550.706 81.3946C552.468 78.9727 555.048 77.077 558.445 75.7071C561.841 74.3399 565.962 73.656 570.805 73.656H578.592V69.3612C578.592 66.6571 577.78 64.5008 576.161 62.8998C574.54 61.2926 572.189 60.4915 569.108 60.4915C567.346 60.4915 565.79 60.7035 564.437 61.1295C563.085 61.553 561.873 62.1592 560.802 62.9451L559.72 69.8336H550.99L550.896 57.2379C553.412 55.6024 556.212 54.304 559.294 53.3431C562.376 52.3852 565.804 51.905 569.578 51.905C576.058 51.905 581.162 53.4232 584.888 56.4571C588.617 59.494 590.481 63.8431 590.481 69.5046V92.0076C590.481 92.7003 590.486 93.3754 590.504 94.0379C590.518 94.6951 590.558 95.3426 590.621 95.9716L595.81 96.6316V103.897H580.29C579.976 102.797 579.684 101.727 579.414 100.689C579.149 99.6508 578.952 98.6134 578.826 97.5759C577.128 99.7139 575.074 101.466 572.67 102.836C570.262 104.204 567.552 104.887 564.532 104.887Z" fill="#334AA6"/>
<path d="M598.584 103.897V96.6316L605.71 95.2164V39.0232L598.161 37.6112V30.2972H617.55V95.2164L624.677 96.6316V103.897H598.584Z" fill="#334AA6"/>
<path d="M139.601 69.572C139.601 31.1471 108.452 -0.0022583 70.0277 -0.0022583C31.6026 -0.0022583 0.453125 31.1471 0.453125 69.572C0.453125 107.997 31.6026 139.146 70.0277 139.146C108.452 139.146 139.601 107.997 139.601 69.572Z" fill="#334AA6"/>
<path d="M35.6843 35.2279L41.9286 41.4722C57.4453 25.955 82.6105 25.955 98.1271 41.4722L104.371 35.2279C85.4203 16.277 54.6354 16.277 35.6843 35.2279Z" fill="#5DC8BB"/>
<path d="M60.6609 60.205L70.0276 69.5717L79.3942 60.205C74.2109 55.0222 65.8437 55.0222 60.6609 60.205Z" fill="#5DC8BB"/>
<path d="M48.1729 47.7164L54.4167 53.9612C63.0338 45.344 77.0219 45.344 85.6381 53.9612L91.8829 47.7164C79.8005 35.6336 60.2552 35.6336 48.1729 47.7164Z" fill="#5DC8BB"/>
<path d="M70.0276 78.9388L47.9504 101.016V119.504H92.1042V101.016L70.0276 78.9388ZM70.0276 91.4274L83.2734 104.673V110.673H56.7818V104.673L70.0276 91.4274Z" fill="#5DC8BB"/>
</svg>
