<svg width="135" height="30" viewBox="0 0 135 30" fill="none" xmlns="http://www.w3.org/2000/svg">
<path d="M45.5492 22.4005L42.7214 15.5854L45.122 15.189L47.5226 20.5696L48.6823 20.8139V22.4005H45.5492ZM40.0971 14.2427H42.6501C43.6131 14.2427 44.3255 14.0479 44.7865 13.6577C45.2476 13.268 45.4782 12.7003 45.4782 11.9537C45.4782 11.2287 45.2542 10.6504 44.8067 10.2196C44.3591 9.78926 43.6778 9.57409 42.7622 9.57409H40.0971V14.2427ZM35.9165 22.4005V20.8341L37.5338 20.5289V9.47181L35.9165 9.16716V7.59039H42.7622C43.8744 7.59039 44.8236 7.76163 45.6104 8.10377C46.3969 8.4466 46.9971 8.93675 47.4108 9.57409C47.8245 10.2115 48.0312 10.981 48.0312 11.8828C48.0312 12.7508 47.8259 13.5072 47.4157 14.1508C47.0055 14.7956 46.4323 15.2957 45.6969 15.6513C44.9607 16.0078 44.0981 16.1925 43.108 16.2063L40.0971 16.2363V20.5289L41.7144 20.8341V22.4005H35.9165Z" fill="white"/>
<path d="M52.2481 15.8091H56.51V15.5446C56.51 15.0632 56.437 14.6409 56.2913 14.2784C56.1455 13.9154 55.9181 13.6324 55.61 13.429C55.3012 13.2255 54.9097 13.1238 54.4348 13.1238C54.0214 13.1238 53.6584 13.2392 53.3465 13.4696C53.0346 13.7003 52.7853 14.014 52.5991 14.4104C52.4122 14.8074 52.2852 15.2568 52.2176 15.7585L52.2481 15.8091ZM54.6892 22.6139C53.6518 22.6139 52.748 22.382 51.9784 21.9171C51.2086 21.4531 50.6118 20.8107 50.1881 19.9902C49.7641 19.1696 49.5525 18.2301 49.5525 17.1723V16.745C49.5525 15.6734 49.7609 14.7193 50.178 13.8815C50.5949 13.0444 51.1698 12.3865 51.9023 11.9081C52.6344 11.4303 53.4686 11.1911 54.4046 11.1911C55.4013 11.1911 56.2369 11.3916 56.9119 11.7911C57.5863 12.1916 58.0968 12.7595 58.4426 13.4949C58.7885 14.2309 58.9615 15.1144 58.9615 16.1446V17.6093H52.2073L52.1871 17.6604C52.2142 18.2368 52.3346 18.7486 52.5479 19.196C52.7618 19.6438 53.0671 19.997 53.4635 20.2541C53.8605 20.5124 54.3434 20.6413 54.9132 20.6413C55.5099 20.6413 56.0524 20.5599 56.5405 20.3971C57.0289 20.2342 57.4796 20.0037 57.8933 19.7052L58.697 21.3119C58.263 21.6779 57.7105 21.987 57.0389 22.2377C56.3677 22.4887 55.5844 22.6139 54.6892 22.6139Z" fill="white"/>
<path d="M59.8242 22.4005V20.8341L61.3601 20.5289V13.2765L59.7428 12.9709V11.3947H63.7098L63.832 12.839C64.1913 12.3168 64.64 11.9119 65.1796 11.6233C65.7183 11.3354 66.3441 11.1911 67.0562 11.1911C67.7748 11.1911 68.3903 11.3521 68.9023 11.6745C69.414 11.9962 69.8026 12.4827 70.0671 13.1336C70.406 12.5307 70.8516 12.0561 71.4046 11.7097C71.9571 11.3644 72.6068 11.1911 73.3528 11.1911C74.4581 11.1911 75.3274 11.5678 75.9618 12.3198C76.5954 13.0732 76.9127 14.2126 76.9127 15.7378V20.5289L78.4487 20.8341V22.4005H72.9052V20.8341L74.3494 20.5289V15.728C74.3494 14.7988 74.1936 14.1477 73.8817 13.7748C73.5695 13.4019 73.1119 13.215 72.5082 13.215C71.9454 13.215 71.4825 13.3951 71.1198 13.7545C70.7567 14.1139 70.5213 14.5719 70.4129 15.1273V20.5289L71.8068 20.8341V22.4005H66.466V20.8341L67.8599 20.5289V15.728C67.8599 14.8327 67.7001 14.1903 67.3816 13.8C67.0628 13.4104 66.6017 13.215 65.9983 13.215C65.4964 13.215 65.0741 13.3173 64.732 13.5209C64.3894 13.7243 64.1169 14.012 63.9133 14.3851V20.5289L65.3472 20.8341V22.4005H59.8242Z" fill="white"/>
<path d="M84.1327 20.6413C84.7022 20.6413 85.1719 20.4862 85.5413 20.1781C85.911 19.8692 86.1872 19.4419 86.3704 18.8965C86.5532 18.3502 86.6455 17.7214 86.6455 17.0095V16.7955C86.6455 16.0909 86.5532 15.4671 86.3704 14.9239C86.1872 14.382 85.9093 13.9548 85.5361 13.6429C85.1633 13.3309 84.6887 13.1743 84.112 13.1743C83.5492 13.1743 83.0815 13.3309 82.7083 13.6429C82.3355 13.9548 82.0595 14.382 81.8793 14.9239C81.6999 15.4671 81.6099 16.0909 81.6099 16.7955V17.0095C81.6099 17.7214 81.6999 18.3502 81.8793 18.8965C82.0595 19.4419 82.3372 19.8692 82.7135 20.1781C83.0901 20.4862 83.563 20.6413 84.1327 20.6413ZM84.1327 22.6139C83.0746 22.6139 82.1659 22.3772 81.4064 21.9025C80.6472 21.4278 80.0637 20.7682 79.6569 19.9237C79.2499 19.0795 79.0466 18.108 79.0466 17.0095V16.7955C79.0466 15.7044 79.2499 14.7377 79.6569 13.8969C80.0637 13.056 80.6472 12.3951 81.4064 11.913C82.1659 11.4322 83.0677 11.1911 84.112 11.1911C85.1702 11.1911 86.0789 11.4303 86.8383 11.9081C87.5978 12.3865 88.1811 13.0462 88.5879 13.8871C88.9949 14.7278 89.1981 15.6971 89.1981 16.7955V17.0095C89.1981 18.108 88.9949 19.0795 88.5879 19.9237C88.1811 20.7682 87.5996 21.4278 86.8432 21.9025C86.0872 22.3772 85.1837 22.6139 84.1327 22.6139Z" fill="white"/>
<path d="M94.1911 22.5942C93.2552 22.5942 92.5259 22.3309 92.0035 21.8057C91.4815 21.2799 91.2208 20.4407 91.2208 19.2879V13.2255H89.6136V11.3947H91.2208V8.71972H93.7737V11.3947H95.9504V13.2255H93.7737V19.2879C93.7737 19.7559 93.8706 20.0969 94.0632 20.3099C94.257 20.524 94.5194 20.6306 94.852 20.6306C95.0417 20.6306 95.2539 20.614 95.4876 20.5794C95.7216 20.5464 95.9096 20.5124 96.0522 20.4785L96.3167 22.2785C96.0183 22.3665 95.6773 22.4413 95.2947 22.5022C94.9112 22.5634 94.5436 22.5942 94.1911 22.5942Z" fill="white"/>
<path d="M99.468 15.8091H103.73V15.5446C103.73 15.0632 103.657 14.6409 103.511 14.2784C103.365 13.9154 103.138 13.6324 102.83 13.429C102.521 13.2255 102.129 13.1238 101.655 13.1238C101.241 13.1238 100.878 13.2392 100.567 13.4696C100.255 13.7003 100.005 14.014 99.8187 14.4104C99.6322 14.8074 99.5048 15.2568 99.4373 15.7585L99.468 15.8091ZM101.909 22.6139C100.872 22.6139 99.9679 22.382 99.1981 21.9171C98.4286 21.4531 97.8318 20.8107 97.4078 19.9902C96.9844 19.1696 96.7719 18.2301 96.7719 17.1723V16.745C96.7719 15.6734 96.9806 14.7193 97.3977 13.8815C97.8145 13.0444 98.3898 12.3865 99.1222 11.9081C99.8544 11.4303 100.689 11.1911 101.624 11.1911C102.621 11.1911 103.457 11.3916 104.132 11.7911C104.806 12.1916 105.316 12.7595 105.662 13.4949C106.008 14.2309 106.181 15.1144 106.181 16.1446V17.6093H99.4275L99.4068 17.6604C99.4341 18.2368 99.5543 18.7486 99.7676 19.196C99.9815 19.6438 100.287 19.997 100.683 20.2541C101.08 20.5124 101.563 20.6413 102.133 20.6413C102.73 20.6413 103.272 20.5599 103.76 20.3971C104.249 20.2342 104.699 20.0037 105.113 19.7052L105.917 21.3119C105.483 21.6779 104.93 21.987 104.259 22.2377C103.587 22.4887 102.804 22.6139 101.909 22.6139Z" fill="white"/>
<path d="M110.931 22.4005L106.08 9.32998L104.819 9.16716V7.59039H110.199V9.16716L108.856 9.38051L111.939 18.4032L112.213 19.3692H112.274L112.559 18.4131L115.682 9.37074L114.146 9.16716V7.59039H119.364V9.16716L118.083 9.32998L113.413 22.4005H110.931Z" fill="white"/>
<path d="M122.194 20.6306C122.709 20.6306 123.191 20.5105 123.638 20.2695C124.086 20.029 124.422 19.725 124.646 19.3588V17.5181H122.937C122.171 17.5181 121.592 17.6961 121.202 18.0519C120.812 18.4084 120.617 18.8237 120.617 19.2985C120.617 19.725 120.753 20.0542 121.024 20.2847C121.296 20.5155 121.685 20.6306 122.194 20.6306ZM121.614 22.6139C120.495 22.6139 119.624 22.3259 119 21.7496C118.376 21.1732 118.064 20.3799 118.064 19.3693C118.064 18.6775 118.254 18.0712 118.634 17.549C119.013 17.0269 119.57 16.6181 120.302 16.3228C121.034 16.028 121.923 15.8806 122.967 15.8806H124.646V14.9546C124.646 14.3716 124.471 13.9067 124.122 13.5616C123.772 13.215 123.265 13.0423 122.601 13.0423C122.221 13.0423 121.886 13.088 121.594 13.1799C121.302 13.2712 121.041 13.4019 120.81 13.5713L120.577 15.0565H118.695L118.674 12.3409C119.217 11.9883 119.82 11.7083 120.485 11.5012C121.149 11.2946 121.889 11.1911 122.702 11.1911C124.099 11.1911 125.2 11.5184 126.003 12.1725C126.807 12.8273 127.209 13.7649 127.209 14.9855V19.8372C127.209 19.9865 127.21 20.132 127.214 20.2749C127.217 20.4166 127.226 20.5562 127.239 20.6918L128.358 20.8341V22.4005H125.012C124.944 22.1634 124.881 21.9326 124.823 21.7088C124.766 21.485 124.723 21.2613 124.696 21.0377C124.33 21.4986 123.887 21.8765 123.369 22.1718C122.85 22.4666 122.265 22.6139 121.614 22.6139Z" fill="white"/>
<path d="M128.956 22.4005V20.8341L130.492 20.5289V8.4138L128.865 8.10938V6.53249H133.045V20.5289L134.582 20.8341V22.4005H128.956Z" fill="white"/>
<path d="M30 15.0001C30 6.71574 23.2844 0 15.0001 0C6.71577 0 0 6.71574 0 15.0001C0 23.2843 6.71577 30 15.0001 30C23.2844 30 30 23.2843 30 15.0001Z" fill="white"/>
<path d="M7.5957 7.59564L8.94196 8.94189C12.2873 5.59641 17.7129 5.59641 21.0583 8.94189L22.4045 7.59564C18.3187 3.50986 11.6815 3.50986 7.5957 7.59564Z" fill="#334AA6"/>
<path d="M12.981 12.9806L15.0004 15L17.0198 12.9806C15.9023 11.8632 14.0984 11.8632 12.981 12.9806Z" fill="#334AA6"/>
<path d="M10.2881 10.2879L11.6343 11.6343C13.4921 9.77643 16.5079 9.77643 18.3655 11.6343L19.7119 10.2879C17.1069 7.68288 12.893 7.68288 10.2881 10.2879Z" fill="#334AA6"/>
<path d="M15 17.0194L10.2402 21.7792V25.7651H19.7597V21.7792L15 17.0194ZM15 19.7119L17.8558 22.5676V23.8612H12.1443V22.5676L15 19.7119Z" fill="#334AA6"/>
</svg>
