<svg width="403" height="403" viewBox="0 0 403 403" fill="none" xmlns="http://www.w3.org/2000/svg">
<g filter="url(#filter0_d)">
<circle cx="201.5" cy="196.5" r="101.5" fill="#355267"/>
</g>
<path d="M173.97 249.038L146.37 264.093C144.75 264.976 143.295 266.061 141.94 267.245C158.032 280.812 178.804 288.998 201.5 288.998C224.028 288.998 244.668 280.935 260.714 267.552C259.234 266.302 257.628 265.178 255.848 264.292L226.293 249.516C222.475 247.607 220.063 243.704 220.063 239.435V227.84C220.894 226.894 221.843 225.679 222.859 224.244C226.887 218.555 229.934 212.296 232.046 205.73C235.837 204.561 238.629 201.06 238.629 196.899V184.522C238.629 181.799 237.418 179.366 235.536 177.663V159.77C235.536 159.77 239.212 131.926 201.503 131.926C163.795 131.926 167.47 159.77 167.47 159.77V177.663C165.586 179.366 164.378 181.799 164.378 184.522V196.899C164.378 200.159 166.092 203.029 168.657 204.687C171.75 218.15 179.848 227.84 179.848 227.84V239.149C179.844 243.268 177.59 247.062 173.97 249.038Z" fill="#E7ECED"/>
<path d="M203.081 104.014C152.004 103.141 109.886 143.841 109.014 194.919C108.518 223.88 121.426 249.909 141.979 267.219C143.323 266.046 144.764 264.971 146.366 264.098L173.966 249.043C177.586 247.068 179.841 243.273 179.841 239.148V227.838C179.841 227.838 171.739 218.148 168.65 204.685C166.088 203.027 164.371 200.161 164.371 196.898V184.52C164.371 181.798 165.582 179.365 167.463 177.661V159.769C167.463 159.769 163.788 131.924 201.496 131.924C239.205 131.924 235.529 159.769 235.529 159.769V177.661C237.414 179.365 238.622 181.798 238.622 184.52V196.898C238.622 201.058 235.83 204.56 232.039 205.729C229.927 212.295 226.88 218.553 222.852 224.243C221.836 225.677 220.886 226.892 220.056 227.838V239.434C220.056 243.703 222.468 247.609 226.286 249.515L255.841 264.29C257.614 265.177 259.216 266.297 260.693 267.543C280.624 250.921 293.501 226.068 293.979 198.081C294.859 147.004 254.162 104.886 203.081 104.014Z" fill="#556080"/>
<defs>
<filter id="filter0_d" x="0" y="0" width="403" height="403" filterUnits="userSpaceOnUse" color-interpolation-filters="sRGB">
<feFlood flood-opacity="0" result="BackgroundImageFix"/>
<feColorMatrix in="SourceAlpha" type="matrix" values="0 0 0 0 0 0 0 0 0 0 0 0 0 0 0 0 0 0 127 0"/>
<feOffset dy="5"/>
<feGaussianBlur stdDeviation="50"/>
<feColorMatrix type="matrix" values="0 0 0 0 0.149531 0 0 0 0 0.271228 0 0 0 0 0.3625 0 0 0 1 0"/>
<feBlend mode="normal" in2="BackgroundImageFix" result="effect1_dropShadow"/>
<feBlend mode="normal" in="SourceGraphic" in2="effect1_dropShadow" result="shape"/>
</filter>
</defs>
</svg>
